<svg xmlns="http://www.w3.org/2000/svg" viewBox="0 0 480 620" role="img" aria-labelledby="title desc">
  <title id="title">Oceano Divertido cover</title>
  <desc id="desc">Children coloring book cover with sea illustration</desc>
  <rect width="480" height="620" rx="24" fill="#fffdf7" />
  <rect x="22" y="22" width="436" height="576" rx="20" fill="#eff6fa" stroke="#c5d8e5" stroke-width="3" />
  <circle cx="80" cy="104" r="56" fill="#1f4f86" opacity="0.14" />
  <circle cx="390" cy="88" r="50" fill="#d3a442" opacity="0.2" />
  <text x="58" y="114" fill="#1f4f86" font-size="52" font-family="Baloo 2, Trebuchet MS, sans-serif" font-weight="800">OCEANO</text>
  <text x="58" y="166" fill="#754624" font-size="52" font-family="Baloo 2, Trebuchet MS, sans-serif" font-weight="800">DIVERTIDO</text>
  <rect x="62" y="204" width="356" height="280" rx="24" fill="#fffdf8" stroke="#d3e1eb" stroke-width="3" />
  <path d="M82 436c44-22 88-22 132 0 44 22 88 22 132 0 24-12 48-17 72-14" fill="none" stroke="#1f4f86" stroke-width="9" stroke-linecap="round" />
  <ellipse cx="170" cy="338" rx="52" ry="32" fill="#5c9650" />
  <polygon points="205,338 238,320 238,356" fill="#5c9650" />
  <circle cx="154" cy="334" r="4" fill="#fff" />
  <ellipse cx="298" cy="355" rx="44" ry="28" fill="#d9825f" />
  <polygon points="330,355 356,340 356,370" fill="#d9825f" />
  <circle cx="286" cy="350" r="3" fill="#fff" />
  <text x="62" y="532" fill="#5c9650" font-size="28" font-family="Baloo 2, Trebuchet MS, sans-serif" font-weight="700">Aventuras marinas para peques</text>
</svg>
