<svg xmlns="http://www.w3.org/2000/svg" viewBox="0 0 1200 630" fill="none">
  <rect width="1200" height="630" fill="#F6F1E7"/>
  <rect x="60" y="60" width="1080" height="510" rx="32" fill="#16A085"/>
  <circle cx="600" cy="270" r="110" fill="#1ABC9C" opacity="0.3"/>
  <!-- Pencil holder/cup -->
  <rect x="555" y="250" width="90" height="80" rx="8" fill="#fff" opacity="0.15"/>
  <rect x="555" y="250" width="90" height="12" rx="4" fill="#F5C563" opacity="0.3"/>
  <!-- Pencils in cup -->
  <line x1="575" y1="250" x2="570" y2="210" stroke="#FF6B6B" stroke-width="5" stroke-linecap="round"/>
  <line x1="590" y1="250" x2="588" y2="200" stroke="#3498DB" stroke-width="5" stroke-linecap="round"/>
  <line x1="605" y1="250" x2="605" y2="205" stroke="#F5C563" stroke-width="5" stroke-linecap="round"/>
  <line x1="620" y1="250" x2="622" y2="208" stroke="#27AE60" stroke-width="5" stroke-linecap="round"/>
  <line x1="635" y1="250" x2="638" y2="215" stroke="#9B59B6" stroke-width="5" stroke-linecap="round"/>
  <!-- Pencil tips -->
  <polygon points="567,210 570,198 573,210" fill="#FFB3B3" opacity="0.8"/>
  <polygon points="585,200 588,188 591,200" fill="#85C1E9" opacity="0.8"/>
  <polygon points="602,205 605,193 608,205" fill="#F9E79F" opacity="0.8"/>
  <polygon points="619,208 622,196 625,208" fill="#82E0AA" opacity="0.8"/>
  <polygon points="635,215 638,203 641,215" fill="#C39BD3" opacity="0.8"/>
  <!-- Crayon -->
  <rect x="490" y="280" width="45" height="14" rx="4" fill="#E74C3C" opacity="0.5"/>
  <rect x="485" y="282" width="8" height="10" rx="2" fill="#E74C3C" opacity="0.3"/>
  <polygon points="535,280 543,287 535,294" fill="#E74C3C" opacity="0.6"/>
  <!-- Marker -->
  <rect x="680" y="260" width="14" height="50" rx="4" fill="#3498DB" opacity="0.4"/>
  <rect x="678" y="255" width="18" height="10" rx="3" fill="#3498DB" opacity="0.5"/>
  <rect x="682" y="310" width="10" height="12" rx="2" fill="#2980B9" opacity="0.4"/>
  <!-- Sparkle/clean star -->
  <polygon points="720,220 723,230 733,230 725,236 728,246 720,240 712,246 715,236 707,230 717,230" fill="#F5C563" opacity="0.4"/>
  <polygon points="480,230 482,237 490,237 484,241 486,248 480,244 474,248 476,241 470,237 478,237" fill="#fff" opacity="0.3"/>
  <!-- Wash droplet -->
  <path d="M730,260 Q735,248 740,260 Q740,270 730,270 Q720,270 720,260" fill="#85C1E9" opacity="0.3"/>
  <text x="600" y="465" text-anchor="middle" font-family="system-ui,sans-serif" font-weight="800" font-size="28" fill="#fff">COLORING SUPPLIES GUIDE</text>
  <text x="600" y="500" text-anchor="middle" font-family="system-ui,sans-serif" font-weight="400" font-size="18" fill="#F5C563">What to buy (and what to skip) by age</text>
</svg>