<svg xmlns="http://www.w3.org/2000/svg" viewBox="0 0 1200 630" fill="none">
  <rect width="1200" height="630" fill="#F6F1E7"/>
  <rect x="60" y="60" width="1080" height="510" rx="32" fill="#9B59B6"/>
  <circle cx="600" cy="270" r="110" fill="#8E44AD" opacity="0.3"/>
  <!-- Star / crown -->
  <polygon points="600,190 615,230 660,230 625,255 638,295 600,270 562,295 575,255 540,230 585,230" fill="#F5C563" opacity="0.4"/>
  <!-- Power sparkles -->
  <circle cx="520" cy="240" r="4" fill="#fff" opacity="0.4"/>
  <circle cx="680" cy="250" r="3" fill="#fff" opacity="0.3"/>
  <circle cx="550" cy="310" r="3" fill="#F5C563" opacity="0.4"/>
  <circle cx="660" cy="200" r="4" fill="#F5C563" opacity="0.3"/>
  <!-- Paintbrush -->
  <line x1="560" y1="320" x2="530" y2="350" stroke="#F5C563" stroke-width="4" stroke-linecap="round" opacity="0.5"/>
  <circle cx="525" cy="355" r="8" fill="#FF6B6B" opacity="0.4"/>
  <!-- Pencil -->
  <line x1="640" y1="315" x2="670" y2="345" stroke="#F5C563" stroke-width="4" stroke-linecap="round" opacity="0.5"/>
  <polygon points="673,349 680,355 670,355" fill="#F5C563" opacity="0.5"/>
  <!-- Heart -->
  <path d="M595 295 C595 285 580 280 580 290 C580 300 595 310 595 310 C595 310 610 300 610 290 C610 280 595 285 595 295Z" fill="#FF6B6B" opacity="0.4"/>
  <text x="600" y="465" text-anchor="middle" font-family="system-ui,sans-serif" font-weight="800" font-size="28" fill="#fff">RAISING CONFIDENT GIRLS</text>
  <text x="600" y="500" text-anchor="middle" font-family="system-ui,sans-serif" font-weight="400" font-size="18" fill="#F5C563">How creative play builds self-esteem</text>
</svg>