<svg xmlns="http://www.w3.org/2000/svg" viewBox="0 0 1200 630" fill="none">
  <rect width="1200" height="630" fill="#F6F1E7"/>
  <rect x="60" y="60" width="1080" height="510" rx="32" fill="#D35400"/>
  <circle cx="600" cy="270" r="110" fill="#E67E22" opacity="0.3"/>
  <!-- Paint palette -->
  <ellipse cx="560" cy="260" rx="70" ry="50" fill="#fff" opacity="0.15" transform="rotate(-15,560,260)"/>
  <circle cx="525" cy="240" r="12" fill="#FF6B6B" opacity="0.6"/>
  <circle cx="555" cy="225" r="12" fill="#3498DB" opacity="0.6"/>
  <circle cx="585" cy="232" r="12" fill="#F5C563" opacity="0.6"/>
  <circle cx="545" cy="275" r="12" fill="#27AE60" opacity="0.5"/>
  <circle cx="575" cy="270" r="12" fill="#9B59B6" opacity="0.5"/>
  <!-- Scissors -->
  <circle cx="660" cy="240" r="14" stroke="#F5C563" stroke-width="2" fill="none" opacity="0.4"/>
  <circle cx="660" cy="270" r="14" stroke="#F5C563" stroke-width="2" fill="none" opacity="0.4"/>
  <line x1="660" y1="254" x2="660" y2="256" stroke="#F5C563" stroke-width="3" opacity="0.5"/>
  <line x1="660" y1="226" x2="660" y2="210" stroke="#F5C563" stroke-width="3" stroke-linecap="round" opacity="0.4"/>
  <line x1="660" y1="284" x2="660" y2="300" stroke="#F5C563" stroke-width="3" stroke-linecap="round" opacity="0.4"/>
  <!-- Paper strips -->
  <rect x="700" y="230" width="30" height="45" rx="3" fill="#fff" opacity="0.15" transform="rotate(10,715,252)"/>
  <rect x="715" y="240" width="25" height="40" rx="3" fill="#4ECDC4" opacity="0.15" transform="rotate(-5,727,260)"/>
  <!-- Sparkle burst -->
  <circle cx="500" cy="300" r="4" fill="#F5C563" opacity="0.4"/>
  <circle cx="710" cy="210" r="3" fill="#fff" opacity="0.3"/>
  <circle cx="480" cy="220" r="3" fill="#fff" opacity="0.25"/>
  <!-- Light bulb (ideas) -->
  <circle cx="600" cy="190" r="18" fill="#F5C563" opacity="0.4"/>
  <rect x="595" y="208" width="10" height="10" rx="2" fill="#F5C563" opacity="0.3"/>
  <line x1="600" y1="168" x2="600" y2="158" stroke="#F5C563" stroke-width="2" opacity="0.4"/>
  <line x1="618" y1="178" x2="625" y2="172" stroke="#F5C563" stroke-width="2" opacity="0.3"/>
  <line x1="582" y1="178" x2="575" y2="172" stroke="#F5C563" stroke-width="2" opacity="0.3"/>
  <text x="600" y="465" text-anchor="middle" font-family="system-ui,sans-serif" font-weight="800" font-size="28" fill="#fff">CREATIVE WORKSHOP AT HOME</text>
  <text x="600" y="500" text-anchor="middle" font-family="system-ui,sans-serif" font-weight="400" font-size="18" fill="#F5C563">3 simple ideas to spark creativity this afternoon</text>
</svg>