<svg xmlns="http://www.w3.org/2000/svg" viewBox="0 0 1200 630" fill="none">
  <rect width="1200" height="630" fill="#F6F1E7"/>
  <rect x="60" y="60" width="1080" height="510" rx="32" fill="#C2637A"/>
  <circle cx="600" cy="275" r="110" fill="#D4798E" opacity="0.4"/>
  <!-- Mirror frame -->
  <ellipse cx="600" cy="260" rx="70" ry="85" stroke="#F5C563" stroke-width="4" fill="#fff" opacity="0.1"/>
  <rect x="585" y="345" width="30" height="30" rx="2" fill="#F5C563" opacity="0.3"/>
  <!-- Stars around mirror -->
  <polygon points="500,210 504,222 516,222 506,229 510,241 500,234 490,241 494,229 484,222 496,222" fill="#F5C563" opacity="0.6"/>
  <polygon points="700,220 703,228 712,228 705,233 707,241 700,236 693,241 695,233 688,228 697,228" fill="#F5C563" opacity="0.5"/>
  <!-- Heart -->
  <path d="M590 270 C590 256 570 248 570 264 C570 280 590 294 590 294 C590 294 610 280 610 264 C610 248 590 256 590 270Z" fill="#F5C563" opacity="0.4"/>
  <!-- Sparkle -->
  <circle cx="550" cy="300" r="4" fill="#fff" opacity="0.5"/>
  <circle cx="650" cy="240" r="3" fill="#fff" opacity="0.4"/>
  <circle cx="520" cy="260" r="3" fill="#fff" opacity="0.3"/>
  <text x="600" y="465" text-anchor="middle" font-family="system-ui,sans-serif" font-weight="800" font-size="28" fill="#fff">CONFIDENCE &amp; SELF-EXPRESSION</text>
  <text x="600" y="500" text-anchor="middle" font-family="system-ui,sans-serif" font-weight="400" font-size="18" fill="#F5C563">How dress-up coloring builds confidence</text>
</svg>