<svg xmlns="http://www.w3.org/2000/svg" viewBox="0 0 1200 630" fill="none">
  <rect width="1200" height="630" fill="#F6F1E7"/>
  <rect x="60" y="60" width="1080" height="510" rx="32" fill="#7CB342"/>
  <circle cx="600" cy="270" r="110" fill="#8BC34A" opacity="0.3"/>
  <!-- Easter egg 1 -->
  <ellipse cx="540" cy="270" rx="35" ry="50" fill="#FF6B6B" opacity="0.6"/>
  <line x1="510" y1="255" x2="570" y2="255" stroke="#fff" stroke-width="2" opacity="0.5"/>
  <line x1="510" y1="270" x2="570" y2="270" stroke="#F5C563" stroke-width="2" opacity="0.5"/>
  <line x1="510" y1="285" x2="570" y2="285" stroke="#fff" stroke-width="2" opacity="0.5"/>
  <!-- Easter egg 2 -->
  <ellipse cx="600" cy="260" rx="30" ry="45" fill="#4ECDC4" opacity="0.6"/>
  <circle cx="590" cy="245" r="4" fill="#fff" opacity="0.5"/>
  <circle cx="610" cy="260" r="4" fill="#fff" opacity="0.5"/>
  <circle cx="595" cy="275" r="4" fill="#fff" opacity="0.5"/>
  <!-- Easter egg 3 -->
  <ellipse cx="660" cy="275" rx="32" ry="48" fill="#F5C563" opacity="0.6"/>
  <path d="M635 265 Q660 250 685 265" stroke="#fff" stroke-width="2" fill="none" opacity="0.5"/>
  <path d="M635 285 Q660 270 685 285" stroke="#fff" stroke-width="2" fill="none" opacity="0.5"/>
  <!-- Bunny ears -->
  <ellipse cx="585" cy="180" rx="12" ry="35" fill="#fff" opacity="0.25" transform="rotate(-10,585,180)"/>
  <ellipse cx="615" cy="180" rx="12" ry="35" fill="#fff" opacity="0.25" transform="rotate(10,615,180)"/>
  <!-- Confetti -->
  <rect x="480" y="210" width="6" height="12" rx="2" fill="#F5C563" opacity="0.5" transform="rotate(25,483,216)"/>
  <rect x="720" y="230" width="6" height="12" rx="2" fill="#FF6B6B" opacity="0.5" transform="rotate(-20,723,236)"/>
  <circle cx="500" cy="300" r="4" fill="#fff" opacity="0.4"/>
  <circle cx="700" cy="250" r="3" fill="#fff" opacity="0.3"/>
  <text x="600" y="465" text-anchor="middle" font-family="system-ui,sans-serif" font-weight="800" font-size="28" fill="#fff">EASTER FAMILY FUN</text>
  <text x="600" y="500" text-anchor="middle" font-family="system-ui,sans-serif" font-weight="400" font-size="18" fill="#F5C563">5 coloring activities the whole family can enjoy</text>
</svg>