<svg xmlns="http://www.w3.org/2000/svg" viewBox="0 0 1200 630" fill="none">
  <rect width="1200" height="630" rx="0" fill="#F6F1E7"/>
  <rect x="60" y="60" width="1080" height="510" rx="32" fill="#1B3A5C"/>
  <circle cx="600" cy="280" r="120" fill="#2A5F8F" opacity="0.5"/>
  <!-- Wand -->
  <line x1="560" y1="320" x2="640" y2="220" stroke="#E8A838" stroke-width="6" stroke-linecap="round"/>
  <circle cx="640" cy="220" r="8" fill="#F5C563"/>
  <!-- Stars -->
  <polygon points="660,190 665,205 680,205 668,213 672,228 660,220 648,228 652,213 640,205 655,205" fill="#F5C563"/>
  <polygon points="700,240 703,250 714,250 706,256 708,266 700,260 692,266 694,256 686,250 697,250" fill="#F5C563" opacity="0.7"/>
  <polygon points="540,200 543,210 554,210 546,216 548,226 540,220 532,226 534,216 526,210 537,210" fill="#F5C563" opacity="0.6"/>
  <polygon points="580,260 583,268 592,268 585,273 587,281 580,276 573,281 575,273 568,268 577,268" fill="#F5C563" opacity="0.5"/>
  <!-- Sparkle lines -->
  <line x1="680" y1="200" x2="710" y2="180" stroke="#F5C563" stroke-width="2" opacity="0.6"/>
  <line x1="690" y1="230" x2="720" y2="225" stroke="#F5C563" stroke-width="2" opacity="0.5"/>
  <!-- Book outline -->
  <rect x="550" y="300" width="60" height="75" rx="4" fill="#fff" opacity="0.15"/>
  <rect x="555" y="310" width="50" height="5" rx="2" fill="#F5C563" opacity="0.3"/>
  <rect x="555" y="320" width="40" height="3" rx="1" fill="#fff" opacity="0.2"/>
  <!-- Title -->
  <text x="600" y="470" text-anchor="middle" font-family="system-ui,sans-serif" font-weight="800" font-size="28" fill="#fff" letter-spacing="0.02em">IMAGINATION &amp; COLORING</text>
  <text x="600" y="505" text-anchor="middle" font-family="system-ui,sans-serif" font-weight="400" font-size="18" fill="#F5C563">How fantasy coloring sparks creativity in kids</text>
</svg>