<svg xmlns="http://www.w3.org/2000/svg" viewBox="0 0 1200 630" fill="none">
  <rect width="1200" height="630" fill="#F6F1E7"/>
  <rect x="60" y="60" width="1080" height="510" rx="32" fill="#6B3A6B"/>
  <circle cx="600" cy="270" r="110" fill="#8B5A8B" opacity="0.4"/>
  <!-- Palette -->
  <ellipse cx="580" cy="280" rx="80" ry="60" fill="#fff" opacity="0.15" transform="rotate(-10,580,280)"/>
  <!-- Color dots -->
  <circle cx="540" cy="260" r="14" fill="#FF6B6B"/>
  <circle cx="570" cy="240" r="14" fill="#4ECDC4"/>
  <circle cx="610" cy="240" r="14" fill="#F5C563"/>
  <circle cx="640" cy="260" r="14" fill="#9B59B6"/>
  <circle cx="620" cy="290" r="14" fill="#3498DB"/>
  <!-- Brush -->
  <line x1="650" y1="310" x2="700" y2="230" stroke="#E8A838" stroke-width="5" stroke-linecap="round"/>
  <ellipse cx="705" cy="222" rx="10" ry="16" fill="#F5C563" transform="rotate(-30,705,222)"/>
  <!-- Hanger -->
  <path d="M520 310 L560 280 L600 310" stroke="#fff" stroke-width="3" fill="none" opacity="0.4"/>
  <circle cx="560" cy="275" r="5" fill="#fff" opacity="0.4"/>
  <!-- Dress silhouette -->
  <path d="M530 310 L540 310 L530 370 L590 370 L580 310 L590 310" stroke="#F5C563" stroke-width="2" fill="#F5C563" opacity="0.2"/>
  <text x="600" y="465" text-anchor="middle" font-family="system-ui,sans-serif" font-weight="800" font-size="28" fill="#fff">FASHION &amp; CREATIVITY</text>
  <text x="600" y="500" text-anchor="middle" font-family="system-ui,sans-serif" font-weight="400" font-size="18" fill="#F5C563">The perfect creative outlet for teens</text>
</svg>