<svg xmlns="http://www.w3.org/2000/svg" viewBox="0 0 1200 630" fill="none">
  <rect width="1200" height="630" fill="#F6F1E7"/>
  <rect x="60" y="60" width="1080" height="510" rx="32" fill="#E74C3C"/>
  <circle cx="600" cy="270" r="110" fill="#C0392B" opacity="0.3"/>
  <!-- Pizza slice -->
  <path d="M560 230 L600 310 L640 230 Z" fill="#F5C563" opacity="0.5"/>
  <circle cx="580" cy="260" r="6" fill="#E74C3C" opacity="0.6"/>
  <circle cx="610" cy="250" r="5" fill="#E74C3C" opacity="0.5"/>
  <circle cx="595" cy="275" r="4" fill="#27AE60" opacity="0.5"/>
  <!-- Ice cream cone -->
  <polygon points="680,310 700,230 720,310" fill="#F5C563" opacity="0.3"/>
  <circle cx="700" cy="228" r="22" fill="#FF6B6B" opacity="0.5"/>
  <circle cx="690" cy="212" r="18" fill="#4ECDC4" opacity="0.4"/>
  <circle cx="712" cy="215" r="16" fill="#F5C563" opacity="0.5"/>
  <!-- Fork and plate -->
  <circle cx="510" cy="280" r="40" stroke="#fff" stroke-width="2" fill="#fff" opacity="0.1"/>
  <line x1="480" y1="240" x2="480" y2="310" stroke="#fff" stroke-width="2" opacity="0.3"/>
  <line x1="476" y1="240" x2="476" y2="260" stroke="#fff" stroke-width="1.5" opacity="0.3"/>
  <line x1="484" y1="240" x2="484" y2="260" stroke="#fff" stroke-width="1.5" opacity="0.3"/>
  <!-- Smile on plate -->
  <path d="M495 290 Q510 305 525 290" stroke="#F5C563" stroke-width="2" fill="none" opacity="0.5"/>
  <text x="600" y="465" text-anchor="middle" font-family="system-ui,sans-serif" font-weight="800" font-size="28" fill="#fff">FOOD &amp; PICKY EATERS</text>
  <text x="600" y="500" text-anchor="middle" font-family="system-ui,sans-serif" font-weight="400" font-size="18" fill="#F5C563">How coloring food makes kids more adventurous</text>
</svg>