<svg xmlns="http://www.w3.org/2000/svg" viewBox="0 0 1200 630" fill="none">
  <rect width="1200" height="630" fill="#F6F1E7"/>
  <rect x="60" y="60" width="1080" height="510" rx="32" fill="#E67E22"/>
  <circle cx="600" cy="270" r="110" fill="#F39C12" opacity="0.3"/>
  <!-- Emotion faces -->
  <!-- Happy -->
  <circle cx="520" cy="250" r="35" fill="#F5C563" opacity="0.5"/>
  <circle cx="510" cy="242" r="4" fill="#1B3A5C" opacity="0.6"/>
  <circle cx="530" cy="242" r="4" fill="#1B3A5C" opacity="0.6"/>
  <path d="M508 260 Q520 275 532 260" stroke="#1B3A5C" stroke-width="2.5" fill="none" opacity="0.6"/>
  <!-- Sad -->
  <circle cx="600" cy="260" r="35" fill="#3498DB" opacity="0.4"/>
  <circle cx="590" cy="252" r="4" fill="#1B3A5C" opacity="0.6"/>
  <circle cx="610" cy="252" r="4" fill="#1B3A5C" opacity="0.6"/>
  <path d="M588 275 Q600 265 612 275" stroke="#1B3A5C" stroke-width="2.5" fill="none" opacity="0.6"/>
  <!-- Angry -->
  <circle cx="680" cy="255" r="35" fill="#E74C3C" opacity="0.4"/>
  <circle cx="670" cy="247" r="4" fill="#1B3A5C" opacity="0.6"/>
  <circle cx="690" cy="247" r="4" fill="#1B3A5C" opacity="0.6"/>
  <line x1="665" y1="237" x2="675" y2="242" stroke="#1B3A5C" stroke-width="2" opacity="0.5"/>
  <line x1="695" y1="237" x2="685" y2="242" stroke="#1B3A5C" stroke-width="2" opacity="0.5"/>
  <line x1="668" y1="268" x2="692" y2="268" stroke="#1B3A5C" stroke-width="2.5" opacity="0.6"/>
  <!-- Color splash connection -->
  <path d="M555 260 L565 260" stroke="#fff" stroke-width="1.5" opacity="0.3"/>
  <path d="M635 260 L645 260" stroke="#fff" stroke-width="1.5" opacity="0.3"/>
  <!-- Crayon -->
  <rect x="580" y="310" width="40" height="10" rx="2" fill="#F5C563" opacity="0.4"/>
  <polygon points="620,310 630,315 620,320" fill="#F5C563" opacity="0.4"/>
  <text x="600" y="465" text-anchor="middle" font-family="system-ui,sans-serif" font-weight="800" font-size="28" fill="#fff">NAMING FEELINGS</text>
  <text x="600" y="500" text-anchor="middle" font-family="system-ui,sans-serif" font-weight="400" font-size="18" fill="#F5C563">Teaching kids emotions through color</text>
</svg>