<svg xmlns="http://www.w3.org/2000/svg" viewBox="0 0 1200 630" fill="none">
  <rect width="1200" height="630" fill="#F6F1E7"/>
  <rect x="60" y="60" width="1080" height="510" rx="32" fill="#F57C00"/>
  <circle cx="600" cy="270" r="110" fill="#EF6C00" opacity="0.3"/>
  <!-- Excavator body -->
  <rect x="550" y="270" width="80" height="40" rx="5" fill="#F5C563" opacity="0.5"/>
  <rect x="545" y="255" width="45" height="25" rx="3" fill="#F5C563" opacity="0.4"/>
  <!-- Window -->
  <rect x="550" y="260" width="30" height="15" rx="2" fill="#fff" opacity="0.2"/>
  <!-- Arm -->
  <line x1="630" y1="275" x2="680" y2="230" stroke="#F5C563" stroke-width="6" stroke-linecap="round" opacity="0.6"/>
  <line x1="680" y1="230" x2="720" y2="270" stroke="#F5C563" stroke-width="5" stroke-linecap="round" opacity="0.6"/>
  <!-- Bucket -->
  <path d="M710 270 L730 270 L735 290 L705 290 Z" fill="#F5C563" opacity="0.5"/>
  <!-- Wheels/tracks -->
  <rect x="545" y="310" width="90" height="16" rx="8" fill="#1B3A5C" opacity="0.3"/>
  <circle cx="560" cy="318" r="7" fill="#1B3A5C" opacity="0.4"/>
  <circle cx="590" cy="318" r="7" fill="#1B3A5C" opacity="0.4"/>
  <circle cx="620" cy="318" r="7" fill="#1B3A5C" opacity="0.4"/>
  <!-- Dirt piles -->
  <ellipse cx="500" cy="330" rx="30" ry="12" fill="#8D6E63" opacity="0.3"/>
  <ellipse cx="700" cy="325" rx="25" ry="10" fill="#8D6E63" opacity="0.25"/>
  <!-- Gear icon -->
  <circle cx="490" cy="240" r="20" stroke="#fff" stroke-width="2" fill="none" opacity="0.2"/>
  <circle cx="490" cy="240" r="8" fill="#fff" opacity="0.15"/>
  <text x="600" y="465" text-anchor="middle" font-family="system-ui,sans-serif" font-weight="800" font-size="28" fill="#fff">TRUCKS &amp; REAL SKILLS</text>
  <text x="600" y="500" text-anchor="middle" font-family="system-ui,sans-serif" font-weight="400" font-size="18" fill="#F5C563">Why truck-obsessed kids are building brainpower</text>
</svg>