<svg xmlns="http://www.w3.org/2000/svg" viewBox="0 0 1200 630" role="img" aria-labelledby="title desc">
  <title id="title">Little Chubby Press social preview</title>
  <desc id="desc">Editorial style cover with logo and tagline</desc>
  <defs>
    <linearGradient id="paper" x1="0" x2="1" y1="0" y2="1">
      <stop offset="0" stop-color="#f8f3e8" />
      <stop offset="1" stop-color="#fffaf1" />
    </linearGradient>
  </defs>
  <rect width="1200" height="630" fill="url(#paper)" />
  <circle cx="110" cy="110" r="80" fill="#1f4f86" opacity="0.08" />
  <circle cx="1070" cy="88" r="110" fill="#5c9650" opacity="0.12" />
  <circle cx="1040" cy="550" r="130" fill="#d3a442" opacity="0.16" />
  <circle cx="120" cy="560" r="120" fill="#d9825f" opacity="0.14" />

  <rect x="85" y="145" width="1030" height="340" rx="26" fill="#fffdf8" stroke="#e2d4bd" stroke-width="3" />
  <g transform="translate(150 202)">
    <circle cx="106" cy="106" r="88" fill="#fffdf8" stroke="#754624" stroke-width="7" />
    <circle cx="94" cy="108" r="34" fill="#f8f3eb" stroke="#1d1d1d" stroke-width="4" />
    <circle cx="126" cy="94" r="24" fill="#f8f3eb" stroke="#1d1d1d" stroke-width="4" />
    <circle cx="84" cy="86" r="12" fill="#d3e6f3" stroke="#1d1d1d" stroke-width="3" />
    <path d="M80 123c-12 5-20 14-21 26" fill="none" stroke="#1d1d1d" stroke-width="5" stroke-linecap="round" />
    <path d="M58 149c0 10-10 10-10 0 0-8 10-9 10 0" fill="none" stroke="#1d1d1d" stroke-width="5" stroke-linecap="round" />
    <path d="M70 120l54-42 14 19-54 42z" fill="#f3cf54" stroke="#1d1d1d" stroke-width="4" />
    <path d="M137 97l10-8 10 13-10 8z" fill="#5c9650" stroke="#1d1d1d" stroke-width="4" />
  </g>

  <text x="420" y="290" fill="#754624" font-size="84" font-family="Baloo 2, Trebuchet MS, Segoe UI, sans-serif" font-weight="800">
    LITTLE CHUBBY PRESS
  </text>
  <text x="420" y="354" fill="#1f4f86" font-size="36" font-family="Baloo 2, Trebuchet MS, Segoe UI, sans-serif" font-weight="700">
    Coloring books created by kids, for kids
  </text>
  <text x="420" y="414" fill="#5c9650" font-size="30" font-family="Lora, Georgia, serif">
    Editorial website • Books • Blog • Newsletter
  </text>
</svg>
